# Blender 5.1.2
# www.blender.org
mtllib low_green_tree.mtl
o Background_Tree_Atlas.009_Background_Tree_Atlas_0.001
v -1.728424 -0.078136 -2.569071
v 1.883106 -0.078136 -2.569071
v 1.883106 -0.078136 0.184315
v -1.728420 -0.078136 0.184315
v -0.022461 -0.078136 2.937712
v -1.153347 -0.078136 2.937712
v 0.079128 1.782093 -2.569071
v 0.079128 -1.829434 -2.569071
v 0.079128 -1.829434 0.184313
v 0.079128 1.782093 0.184313
v -0.339973 -0.406704 2.937712
v -0.339973 0.724171 2.937712
v -0.562263 -1.458553 -1.489114
v -0.870850 -0.990719 -1.061393
v -1.342510 -0.669094 -1.385437
v 1.524891 -0.644085 -1.421054
v 1.033180 -0.962155 -1.074278
v 0.700832 -1.447537 -1.504802
v -1.300747 0.849156 -1.206796
v -0.803097 1.075123 -0.810091
v -0.476673 1.643437 -1.124130
v 0.785496 1.640019 -1.141510
v 1.100193 1.081257 -0.842439
v 1.565754 0.841404 -1.246267
v -1.332165 0.319019 1.166253
v -0.863979 0.667896 1.056012
v -0.746231 1.338749 0.880789
v -0.496517 -1.436230 1.032883
v -0.710533 -0.796566 0.884814
v -1.256775 -0.668026 1.175421
v 0.443111 1.386356 0.776387
v 0.755573 0.712284 0.724551
v 1.216522 0.498951 1.092677
v 1.280582 -0.488125 1.102833
v 0.860317 -0.763729 0.928052
v 0.667164 -1.389645 0.930735
v 0.122612 -0.034954 -0.220521
v -0.064144 -0.058361 0.564591
vn -0.0000 -1.0000 -0.0000
vn -1.0000 -0.0000 -0.0000
vn -0.9981 -0.0000 -0.0621
vn -0.9978 -0.0000 -0.0656
vn -0.9886 -0.0000 -0.1505
vn -0.1465 -0.7184 0.6801
vn -0.4679 -0.5448 0.6959
vn -0.6559 -0.2413 0.7152
vn 0.6645 -0.2658 0.6984
vn 0.4768 -0.5522 0.6839
vn 0.1672 -0.7158 0.6780
vn -0.6468 0.0964 0.7565
vn -0.4551 0.3796 0.8055
vn -0.1409 0.5396 0.8301
vn 0.1726 0.5386 0.8247
vn 0.4895 0.3660 0.7915
vn 0.6735 0.0679 0.7361
vn 0.3731 0.0072 0.9278
vn 0.2040 0.0542 0.9775
vn 0.1545 -0.0453 0.9869
vn 0.1204 0.2811 0.9521
vn 0.3164 0.1900 0.9294
vn 0.4548 0.0627 0.8884
vn 0.0208 -0.1581 0.9872
vn -0.3572 -0.1524 0.9215
vn -0.4784 -0.0167 0.8780
vn -0.4172 0.0877 0.9046
vn -0.3121 0.1587 0.9367
vn -0.0734 0.2369 0.9688
vn 0.0127 -0.1173 0.9930
vn 0.0592 0.0489 0.9971
vt 0.995649 0.623483
vt 0.833999 0.623483
vt 0.833999 0.499602
vt 0.995649 0.499602
vt 0.897679 0.375721
vt 0.948297 0.375721
vt 0.660922 0.375104
vt 0.688921 0.393201
vt 0.703781 0.419417
vt 0.709257 0.261013
vt 0.693283 0.288044
vt 0.663334 0.305327
vt 0.788403 0.419417
vt 0.804132 0.392605
vt 0.833815 0.375089
vt 0.835423 0.305341
vt 0.807136 0.287439
vt 0.792053 0.261013
vt 0.748360 0.340434
s 0
usemtl Background_Tree_Atlas.004
f 1/1/1 2/2/1 3/3/1
f 1/1/1 3/3/1 4/4/1
f 4/4/1 3/3/1 5/5/1
f 4/4/1 5/5/1 6/6/1
s 1
f 7/1/2 8/2/2 9/3/3
f 7/1/2 9/3/3 10/4/4
f 10/4/4 9/3/3 11/5/5
f 10/4/4 11/5/5 12/6/5
f 13/7/6 14/8/7 15/9/8
f 16/10/9 17/11/10 18/12/11
f 19/13/12 20/14/13 21/15/14
f 22/16/15 23/17/16 24/18/17
f 25/7/18 26/8/19 27/9/20
f 28/10/21 29/11/22 30/12/23
f 31/13/24 32/14/25 33/15/26
f 34/16/27 35/17/28 36/18/29
f 14/8/7 19/13/12 15/9/8
f 19/13/12 14/8/7 20/14/13
f 20/14/13 14/8/7 37/19/30
f 13/7/6 37/19/30 14/8/7
f 37/19/30 13/7/6 18/12/11
f 37/19/30 18/12/11 17/11/10
f 17/11/10 23/17/16 37/19/30
f 23/17/16 17/11/10 16/10/9
f 23/17/16 16/10/9 24/18/17
f 37/19/30 21/15/14 20/14/13
f 21/15/14 37/19/30 22/16/15
f 22/16/15 37/19/30 23/17/16
f 38/19/31 27/9/20 26/8/19
f 27/9/20 38/19/31 31/13/24
f 31/13/24 38/19/31 32/14/25
f 30/12/23 26/8/19 25/7/18
f 26/8/19 30/12/23 29/11/22
f 26/8/19 29/11/22 38/19/31
f 28/10/21 38/19/31 29/11/22
f 38/19/31 28/10/21 36/18/29
f 38/19/31 36/18/29 35/17/28
f 35/17/28 32/14/25 38/19/31
f 32/14/25 35/17/28 33/15/26
f 33/15/26 35/17/28 34/16/27
