# Blender 5.1.2
# www.blender.org
mtllib Road.mtl
o _gltfNode_56.011
v 5.606316 -0.297852 4.613393
v 5.606310 -0.297852 -12.442656
v 5.606316 -0.255881 4.613393
v 5.606310 -0.255881 -12.442656
v 5.606310 -0.112294 -12.442656
v -6.098767 -0.297852 4.613397
v -4.634202 -0.297852 4.613396
v -6.098767 -0.255881 4.613397
v -4.634202 -0.255881 4.613396
v -4.634202 -0.112294 4.613396
v -6.098773 -0.112294 -12.442652
v -6.098773 -0.255881 -12.442652
v -6.098767 -0.112294 4.613397
v -6.098767 -0.255881 4.613397
v -6.098767 -0.297852 4.613397
v -6.098773 -0.297852 -12.442652
v 5.606316 -0.255881 4.613393
v 4.153192 -0.255881 4.613393
v 5.606316 -0.297852 4.613393
v 4.153192 -0.297852 4.613393
v 5.606310 -0.112294 -12.442656
v 5.606310 -0.255881 -12.442656
v 4.153186 -0.112294 -12.442655
v 4.153186 -0.255881 -12.442655
v 4.153186 -0.297852 -12.442655
v -4.634207 -0.297852 -12.442652
v -4.634207 -0.255881 -12.442652
v -6.098773 -0.297852 -12.442652
v -6.098773 -0.255881 -12.442652
v -6.098773 -0.112294 -12.442652
v -4.634207 -0.112294 -12.442652
v 5.606316 -0.255881 4.613393
v 5.606316 -0.112294 4.613393
v 4.153192 -0.255881 4.613393
v 4.153192 -0.112294 4.613393
v 5.606316 -0.112294 4.613393
v 5.606310 -0.112294 -12.442656
v 4.153192 -0.112294 4.613393
v 4.153186 -0.112294 -12.442655
v -4.634202 -0.297852 4.613396
v 4.153192 -0.297852 4.613393
v -4.634202 -0.255881 4.613396
v 4.153192 -0.255881 4.613393
v -4.634207 -0.255881 -12.442652
v -4.634202 -0.255881 4.613396
v 4.153186 -0.255881 -12.442655
v 4.153192 -0.255881 4.613393
v 4.153192 -0.255881 4.613393
v 4.153192 -0.112294 4.613393
v 4.153186 -0.255881 -12.442655
v 4.153186 -0.112294 -12.442655
v -4.634207 -0.255881 -12.442652
v -4.634207 -0.112294 -12.442652
v -4.634202 -0.255881 4.613396
v -4.634202 -0.112294 4.613396
v -4.634202 -0.112294 4.613396
v -4.634207 -0.112294 -12.442652
v -6.098767 -0.112294 4.613397
v -6.098773 -0.112294 -12.442652
v 5.606316 -0.255881 4.613393
v 5.606310 -0.112294 -12.442656
v -6.098767 -0.255881 4.613397
v -4.634202 -0.112294 4.613396
v 5.606310 -0.255881 -12.442656
v 4.153186 -0.297852 -12.442655
v 5.606310 -0.297852 -12.442656
v -6.098767 -0.112294 4.613397
v 5.606316 -0.112294 4.613393
vn 1.0000 -0.0000 -0.0022
vn 1.0000 -0.0002 -0.0022
vn 1.0000 -0.0001 -0.0022
vn -0.0000 -0.0000 1.0000
vn -1.0000 -0.0000 -0.0022
vn -0.0000 -0.0000 -1.0000
vn -0.0000 1.0000 -0.0022
vn 1.0000 -0.0000 0.0022
vt 0.646860 0.570078
vt 0.433441 0.570078
vt 0.646860 0.359451
vt 0.646860 0.386050
vt 0.433441 0.359451
vt 0.646860 0.570751
vt 0.646860 0.548859
vt 0.433441 0.572320
vt 0.433441 0.545795
vt 0.433441 0.386050
vt 0.646860 0.571124
vt 0.433441 0.571124
vt 0.646860 0.546991
vt 0.433441 0.546991
vt 0.646860 0.545795
vt 0.215759 0.814478
vt 0.425441 0.814478
vt 0.215759 0.971458
vt 0.425441 0.971458
vt 0.646175 0.547140
vt 0.646175 0.550951
vt 0.434072 0.547140
vt 0.434072 0.550951
vt 0.435441 0.378205
vt 0.435441 0.383062
vt 0.645754 0.378205
vt 0.645754 0.383062
vt 0.646860 0.382912
vt 0.433441 0.382912
s 1
usemtl Material.017
f 1/1/1 2/2/1 3/1/2
f 2/2/1 4/2/1 3/1/2
f 3/1/2 4/2/1 5/2/3
s 0
f 6/3/4 7/4/4 8/3/4
f 7/4/4 9/4/4 8/3/4
f 8/3/4 9/4/4 10/4/4
s 1
f 11/5/5 12/5/5 13/3/5
f 12/5/5 14/3/5 13/3/5
f 14/3/5 12/5/5 15/3/5
f 12/5/5 16/5/5 15/3/5
s 0
f 17/6/4 18/7/4 19/6/4
f 18/7/4 20/7/4 19/6/4
f 21/8/6 22/8/6 23/9/6
f 22/8/6 24/9/6 23/9/6
f 22/8/6 25/9/6 24/9/6
f 25/9/6 26/10/6 24/9/6
f 24/9/6 26/10/6 27/10/6
f 26/10/6 28/5/6 27/10/6
f 27/10/6 28/5/6 29/5/6
f 29/5/6 30/5/6 27/10/6
f 30/5/6 31/10/6 27/10/6
f 32/6/4 33/6/4 34/7/4
f 33/6/4 35/7/4 34/7/4
s 1
f 36/11/7 37/12/7 38/13/7
f 37/12/7 39/14/7 38/13/7
s 0
f 40/4/4 41/15/4 42/4/4
f 41/15/4 43/15/4 42/4/4
s 1
f 44/16/7 45/17/7 46/18/7
f 45/17/7 47/19/7 46/18/7
f 48/20/5 49/21/5 50/22/5
f 49/21/5 51/23/5 50/22/5
f 52/24/1 53/25/1 54/26/1
f 53/25/1 55/27/1 54/26/1
f 56/28/7 57/29/7 58/3/7
f 57/29/7 59/5/7 58/3/7
s 0
f 65/9/6 64/8/6 66/8/6
f 62/3/4 63/4/4 67/3/4
s 1
f 60/1/2 61/2/8 68/1/1
