# Blender 5.1.2
# www.blender.org
mtllib sidewalk.mtl
o _gltfNode_0.016
v 1.000478 0.001051 -7.092451
v 1.000481 0.001051 3.431633
v 1.000478 -0.139621 -7.092451
v 1.000481 -0.139621 3.431633
v -5.033378 -0.139621 3.431635
v 1.000481 -0.139621 3.431633
v -5.033378 0.001051 3.431635
v 1.000481 0.001051 3.431633
v -5.033381 0.001051 -7.092449
v -5.033378 0.001051 3.431635
v 1.000478 0.001051 -7.092451
v 1.000481 0.001051 3.431633
v -5.033381 0.001051 -7.092449
v 1.000478 0.001051 -7.092451
v -5.033381 -0.139621 -7.092449
v 1.000478 -0.139621 -7.092451
v -5.033378 0.001051 3.431635
v -5.033381 0.001051 -7.092449
v -5.033378 -0.139621 3.431635
v -5.033381 -0.139621 -7.092449
vn 1.0000 -0.0000 -0.0022
vn -0.0000 -0.0000 1.0000
vn -0.0000 1.0000 -0.0022
vn -0.0000 -0.0000 -1.0000
vn -1.0000 -0.0000 -0.0022
vt 0.159612 0.574333
vt 0.159612 0.666883
vt 0.212263 0.666883
vt 0.212263 0.574333
s 1
usemtl Material.042
f 1/1/1 2/2/1 3/1/1
f 2/2/1 4/2/1 3/1/1
s 0
f 5/3/2 6/2/2 7/3/2
f 6/2/2 8/2/2 7/3/2
s 1
f 9/4/3 10/3/3 11/1/3
f 10/3/3 12/2/3 11/1/3
s 0
f 13/4/4 14/1/4 15/4/4
f 14/1/4 16/1/4 15/4/4
s 1
f 17/3/5 18/4/5 19/3/5
f 18/4/5 20/4/5 19/3/5
