# Blender 5.1.2
# www.blender.org
mtllib Badge.mtl
o p:Kit1_Badge_Geo_lodA_Kit1_Badge_Geo_lodA_Porsche_918SpyderRewardRecycled_2015BadgeA_Material
v -0.998991 0.832832 2.419658
v -0.994492 0.834482 2.419345
v -0.999290 0.832232 2.419959
v -0.999137 0.829082 2.421009
v -0.952477 0.817681 2.424175
v -0.998220 0.809131 2.426856
v -0.998827 0.817382 2.424458
v -0.997014 0.801632 2.428953
v -0.954115 0.801932 2.428680
v -0.952920 0.809131 2.426726
v -0.956810 0.795332 2.430337
v -0.990105 0.789632 2.432083
v -0.994459 0.795332 2.430595
v -0.983951 0.784231 2.433415
v -0.966851 0.784231 2.433366
v -0.975249 0.780032 2.434140
v -0.976299 0.780032 2.434143
v -0.961155 0.789331 2.432000
v -0.978292 0.836731 2.418999
v -0.989092 0.835532 2.419180
v -0.967792 0.836431 2.418969
v -0.956692 0.834632 2.419087
v -0.952187 0.829232 2.420724
v -0.952040 0.832232 2.419674
v -0.952341 0.832982 2.419375
v -0.722317 1.249381 4.016222
v -0.746525 1.260781 4.048392
v -0.747749 1.269631 3.987495
v -0.775854 1.280581 4.020726
v -1.102617 1.280731 3.999311
v -1.075539 1.281631 4.026384
v -1.128780 1.272331 4.029537
v -1.101256 1.273081 4.055258
v -1.103513 1.230931 4.367266
v -1.101154 1.224781 4.405059
v -1.141758 1.224931 4.368875
v -1.141345 1.218481 4.408324
v -1.082744 1.065781 5.281460
v -1.039093 1.066381 5.281635
v -1.077831 1.057231 5.321046
v -1.034940 1.059331 5.317773
v -0.712253 0.945031 5.906351
v -0.711023 0.954181 5.864497
v -0.666203 0.945331 5.906069
v -0.665875 0.954481 5.863468
v -0.163556 1.280581 4.018972
v -0.192727 1.260781 4.046806
v -0.191851 1.269631 3.985903
v -0.217119 1.249381 4.014775
v 0.162038 1.273081 4.051640
v 0.136156 1.281631 4.022913
v 0.189414 1.272331 4.025761
v 0.163078 1.280731 3.995687
v 0.166082 1.230931 4.363629
v 0.204336 1.224931 4.365020
v 0.163940 1.224781 4.401435
v 0.204149 1.218481 4.404470
v 0.102955 1.059331 5.314514
v 0.106902 1.066381 5.278353
v 0.145864 1.057231 5.317541
v 0.150551 1.065781 5.277927
v -0.262977 0.954481 5.862314
v -0.217825 0.954181 5.863085
v -0.262405 0.945331 5.904913
v -0.216355 0.945031 5.904931
v -0.461597 0.828181 6.326984
v -0.660652 0.827281 6.325455
v -0.461757 0.851131 6.271035
v -0.663512 0.850081 6.269513
v -0.860646 0.822481 6.310428
v -0.866206 0.845281 6.254643
v -0.264654 0.827281 6.324321
v -0.262114 0.850231 6.268513
v -0.057550 0.822181 6.307978
v -0.064159 0.845731 6.252496
v -0.567475 0.798481 6.387138
v -0.680432 0.793681 6.384762
v -0.680419 0.821731 6.337212
v -0.455564 0.824431 6.338367
v -0.393476 0.798331 6.386490
v -0.393476 0.798331 6.386490
v -0.244069 0.821881 6.336412
v -0.243328 0.797581 6.385610
v -0.416382 0.786031 6.402156
v -0.567475 0.798481 6.387138
v 0.418973 1.200331 3.836253
v 0.419343 1.203031 3.860852
v 0.411470 1.209631 3.835524
v 0.411542 1.212031 3.860424
v 0.417322 1.203631 3.888608
v 0.409971 1.213081 3.888029
v 0.412750 1.202281 3.915771
v 0.405548 1.212181 3.915041
v 0.406513 1.199581 3.937689
v 0.399013 1.209181 3.937710
v -1.351551 1.212181 3.865324
v -1.349222 1.212631 3.892917
v -1.358449 1.203781 3.866244
v -1.356120 1.204231 3.893837
v -1.344793 1.211281 3.920655
v -1.351541 1.202731 3.921274
v 0.893701 0.604082 1.838085
v 0.910614 0.565081 1.772636
v 0.898368 0.567632 1.843922
v 0.918535 0.597031 1.710063
v 0.916080 0.565982 1.743220
v 0.948843 0.566881 1.607976
v 0.914796 0.548281 1.766324
v 0.918677 0.599432 1.707513
v 0.942392 0.602582 1.607844
v -1.902496 0.562832 1.616143
v -1.896642 0.602432 1.617476
v -1.886251 0.562382 1.683897
v -1.875720 0.602732 1.694966
v -1.880473 0.566432 1.711330
v -1.864318 0.596582 1.747884
v -1.883674 0.547832 1.693489
v -1.850369 0.567782 1.852244
v -1.844972 0.604082 1.851179
v -1.862949 0.601532 1.754630
v -0.520033 0.982831 5.511599
v -0.490282 0.980431 5.529214
v -0.520132 0.980431 5.529299
v -0.442878 0.980131 5.530728
v -0.490690 0.978331 5.543915
v -0.409332 0.982831 5.511582
v -0.443290 0.978331 5.543779
v -0.409877 0.980131 5.530783
v -0.432278 0.966781 5.670348
v -0.432254 0.965731 5.678598
v -0.443227 0.968731 5.670529
v -0.443203 0.967531 5.678929
v -0.421479 0.963331 5.669868
v -0.421455 0.962281 5.678117
v -0.454027 0.969631 5.670711
v -0.454003 0.968581 5.678960
v -0.464976 0.969781 5.670892
v -0.464953 0.968731 5.679142
v -0.475903 0.968581 5.679023
v -0.475927 0.969631 5.670774
v -0.486727 0.968731 5.670654
v -0.486703 0.967531 5.679054
v -0.497654 0.965731 5.678785
v -0.497677 0.966781 5.670535
v -0.508479 0.963331 5.670116
v -0.508455 0.962281 5.678367
v -0.421479 0.963331 5.669868
v -0.421479 0.963181 5.669868
v -0.421455 0.962281 5.678117
v -0.421455 0.962131 5.678117
v -0.481507 0.558632 -0.100484
v -0.481370 0.585182 -0.052634
v -0.482107 0.558782 -0.100482
v -0.487201 0.559832 -0.098368
v -0.492144 0.561332 -0.095954
v -0.497085 0.563132 -0.092790
v -0.501575 0.564932 -0.089327
v -0.505763 0.567182 -0.085264
v -0.509500 0.569582 -0.080754
v -0.512637 0.572132 -0.075945
v -0.515323 0.574682 -0.071137
v -0.517556 0.577532 -0.065431
v -0.518893 0.580082 -0.060627
v -0.519628 0.582782 -0.055375
v -0.519913 0.585482 -0.050124
v -0.520562 0.602732 -0.014872
v -0.520259 0.603182 -0.013973
v -0.519508 0.603332 -0.013525
v -0.512001 0.604682 -0.011297
v -0.504347 0.605732 -0.009668
v -0.496543 0.606482 -0.008491
v -0.488741 0.606932 -0.007763
v -0.481240 0.607082 -0.007484
v -0.473741 0.606932 -0.007806
v -0.465943 0.606482 -0.008578
v -0.458147 0.605732 -0.009801
v -0.450502 0.604682 -0.011472
v -0.443008 0.603332 -0.013744
v -0.442259 0.603182 -0.014196
v -0.441962 0.602732 -0.015097
v -0.442813 0.585482 -0.050345
v -0.443128 0.582782 -0.055594
v -0.443893 0.580082 -0.060842
v -0.445257 0.577532 -0.065638
v -0.447523 0.574682 -0.071331
v -0.450237 0.572132 -0.076123
v -0.453401 0.569582 -0.080914
v -0.457163 0.567182 -0.085404
v -0.461375 0.564932 -0.089442
v -0.465885 0.563132 -0.092879
v -0.470844 0.561332 -0.096015
v -0.475801 0.559832 -0.098400
v -0.480907 0.558782 -0.100486
v -0.448886 0.569732 -0.075828
v -0.452200 0.567182 -0.080618
v -0.446171 0.572432 -0.070735
v -0.443905 0.575282 -0.065042
v -0.469944 0.558782 -0.096017
v -0.464985 0.560432 -0.092881
v -0.460325 0.562532 -0.089295
v -0.456113 0.564632 -0.085257
v -0.475051 0.557282 -0.098552
v -0.480457 0.556082 -0.100637
v -0.481508 0.555932 -0.100784
v -0.482557 0.556082 -0.100631
v -0.487951 0.557282 -0.098516
v -0.493044 0.558782 -0.095951
v -0.497985 0.560432 -0.092787
v -0.502624 0.562532 -0.089174
v -0.506813 0.564632 -0.085111
v -0.510699 0.567182 -0.080451
v -0.513986 0.569732 -0.075641
v -0.516671 0.572432 -0.070534
v -0.518905 0.575282 -0.064827
v -0.520390 0.577982 -0.059722
v -0.521125 0.580682 -0.054471
v -0.521260 0.583382 -0.049070
v -0.521909 0.600632 -0.013818
v -0.521604 0.601382 -0.012169
v -0.520102 0.601832 -0.011423
v -0.512445 0.603332 -0.009045
v -0.504640 0.604382 -0.007417
v -0.496836 0.605132 -0.006090
v -0.488734 0.605582 -0.005363
v -0.481234 0.605732 -0.005234
v -0.473734 0.605582 -0.005406
v -0.465637 0.605132 -0.006179
v -0.457840 0.604382 -0.007551
v -0.450045 0.603332 -0.009224
v -0.442402 0.601832 -0.011646
v -0.440904 0.601382 -0.012400
v -0.440609 0.600632 -0.014051
v -0.441460 0.583382 -0.049299
v -0.441625 0.580682 -0.054698
v -0.442390 0.577982 -0.059946
vn 0.0027 0.2709 0.9626
vn 0.0028 0.2707 0.9627
vn 0.0028 0.2710 0.9626
vn 0.0028 0.2708 0.9626
vn 0.0030 0.2707 0.9627
vn 0.0029 0.2710 0.9626
vn 0.0029 0.2708 0.9626
vn 0.0027 0.2706 0.9627
vn 0.5818 0.8124 0.0384
vn 0.5993 0.7990 0.0483
vn 0.6142 0.7852 0.0787
vn 0.5591 0.8286 0.0284
vn -0.1401 0.9827 0.1208
vn -0.1403 0.9839 0.1108
vn -0.1592 0.9773 0.1400
vn -0.1403 0.9828 0.1205
vn -0.1392 0.9773 0.1600
vn -0.1394 0.9788 0.1502
vn -0.0591 0.9761 0.2094
vn -0.0593 0.9780 0.1998
vn -0.0194 0.9796 0.2000
vn -0.0591 0.9761 0.2093
vn 0.0006 0.9778 0.2095
vn -0.0193 0.9776 0.2096
vn -0.0094 0.9778 0.2095
vn -0.5816 0.8124 0.0418
vn -0.5990 0.7990 0.0517
vn -0.5589 0.8286 0.0316
vn -0.6138 0.7852 0.0823
vn 0.1407 0.9827 0.1200
vn 0.1409 0.9839 0.1100
vn 0.1407 0.9828 0.1199
vn 0.1600 0.9773 0.1391
vn 0.1402 0.9788 0.1494
vn 0.1401 0.9773 0.1592
vn 0.1404 0.9788 0.1494
vn 0.0603 0.9761 0.2090
vn 0.0605 0.9780 0.1994
vn 0.0603 0.9761 0.2089
vn 0.0206 0.9796 0.1999
vn 0.0205 0.9776 0.2094
vn 0.0106 0.9778 0.2095
vn 0.0010 0.9372 0.3489
vn -0.0287 0.9253 0.3782
vn 0.0011 0.9292 0.3697
vn -0.0291 0.9322 0.3609
vn -0.0588 0.9190 0.3898
vn -0.0591 0.9309 0.3606
vn 0.0309 0.9253 0.3780
vn 0.0311 0.9321 0.3607
vn 0.0710 0.9184 0.3891
vn 0.0611 0.9309 0.3602
vn -0.0288 0.9166 0.3987
vn -0.0485 0.8326 0.5518
vn -0.0184 0.8410 0.5407
vn 0.0011 0.9242 0.3818
vn 0.0215 0.8410 0.5405
vn 0.0314 0.9150 0.4021
vn 0.0517 0.8326 0.5515
vn 0.0215 0.8410 0.5407
vn -0.0184 0.8410 0.5408
vn 0.0116 0.8210 0.5708
vn 0.7719 0.6218 -0.1326
vn 0.7995 0.5997 -0.0323
vn 0.7976 0.5885 -0.1320
vn 0.7686 0.6389 -0.0321
vn 0.7926 0.6018 0.0980
vn 0.7621 0.6415 0.0880
vn 0.7701 0.5996 0.2177
vn 0.7401 0.6396 0.2078
vn 0.7484 0.5880 0.3068
vn 0.7213 0.6203 0.3081
vn -0.7999 0.5999 -0.0177
vn -0.7615 0.6415 0.0924
vn -0.7688 0.6389 -0.0277
vn -0.7873 0.6081 0.1020
vn -0.7373 0.6382 0.2215
vn -0.7689 0.5996 0.2220
vn 0.9792 0.1398 0.1470
vn 0.9740 0.1405 0.1779
vn 0.9742 0.1707 0.1478
vn 0.9615 0.1802 0.2075
vn 0.9708 0.1500 0.1873
vn 0.9460 0.1810 0.2688
vn 0.9753 0.1306 0.1781
vn 0.9615 0.1802 0.2074
vn 0.9405 0.2099 0.2672
vn -0.9593 0.1600 0.2327
vn -0.9390 0.2099 0.2726
vn -0.9456 0.1793 0.2716
vn -0.9565 0.1894 0.2220
vn -0.9658 0.1495 0.2120
vn -0.9666 0.1695 0.1922
vn -0.9644 0.1407 0.2239
vn -0.9783 0.1398 0.1526
vn -0.9753 0.1692 0.1422
vn -0.9649 0.1792 0.1918
vn -0.0171 0.2000 0.9796
vn -0.0253 0.2001 0.9795
vn -0.0050 0.1999 0.9798
vn -0.0172 0.1999 0.9797
vn -0.0172 0.2001 0.9796
vn -0.0172 0.2000 0.9796
vn -0.0171 0.3489 0.9370
vn -0.0172 0.3489 0.9370
vn -0.0172 0.3490 0.9370
vn -0.0174 0.3489 0.9370
vn -0.0173 0.3489 0.9370
vn -0.0173 0.3490 0.9370
vn -0.0172 0.3488 0.9371
vn -0.0172 0.3488 0.9370
vn -0.0023 0.4711 -0.8821
vn -0.0025 0.4711 -0.8821
vn -0.0026 0.4711 -0.8820
vn -0.0025 0.4712 -0.8820
vn -0.0027 0.4712 -0.8820
vn -0.0026 0.4711 -0.8821
vn -0.0024 0.4712 -0.8820
vn -0.0025 0.4710 -0.8821
vn -0.0024 0.4711 -0.8821
vn -0.0024 0.4710 -0.8821
vn -0.0022 0.4711 -0.8821
vn -0.0026 0.4712 -0.8820
vn -0.0025 0.4713 -0.8820
vn -0.0047 0.4711 -0.8821
vn -0.0028 0.4711 -0.8821
vn -0.0025 0.4709 -0.8822
vn 0.7896 0.1904 -0.5833
vn 0.7453 0.1496 -0.6497
vn 0.8296 0.2203 -0.5131
vn 0.8622 0.2611 -0.4342
vn 0.4762 0.0299 -0.8788
vn 0.5559 0.0599 -0.8291
vn 0.6285 0.0901 -0.7726
vn 0.6897 0.1203 -0.7140
vn 0.3961 0.0101 -0.9182
vn 0.3288 0.0001 -0.9444
vn -0.0027 -0.0299 -0.9995
vn -0.3341 0.0002 -0.9425
vn -0.4013 0.0102 -0.9159
vn -0.4812 0.0300 -0.8761
vn -0.5607 0.0597 -0.8259
vn -0.6329 0.0901 -0.7690
vn -0.6938 0.1204 -0.7100
vn -0.7490 0.1496 -0.6454
vn -0.7930 0.1904 -0.5787
vn -0.8325 0.2203 -0.5083
vn -0.8646 0.2611 -0.4292
vn -0.8893 0.3094 -0.3369
vn -0.9007 0.3501 -0.2574
vn -0.9012 0.3804 -0.2077
vn -0.9031 0.3811 -0.1979
vn -0.8821 0.4710 -0.0075
vn -0.3278 0.7684 0.5497
vn -0.2674 0.7777 0.5689
vn -0.1987 0.7814 0.5915
vn -0.1282 0.7896 0.6001
vn -0.0681 0.7895 0.6099
vn 0.0018 0.7915 0.6111
vn 0.0717 0.7895 0.6095
vn 0.1316 0.7897 0.5992
vn 0.2021 0.7814 0.5904
vn 0.2708 0.7776 0.5674
vn 0.3308 0.7684 0.5478
vn 0.8820 0.4710 -0.0125
vn 0.9020 0.3810 -0.2031
vn 0.9000 0.3804 -0.2128
vn 0.8992 0.3501 -0.2626
vn 0.8873 0.3094 -0.3420
vt 0.631507 0.511729
vt 0.665791 0.528947
vt 0.633338 0.517315
vt 0.632137 0.489083
vt 0.963448 0.397929
vt 0.637393 0.335015
vt 0.633353 0.399117
vt 0.646051 0.277046
vt 0.951098 0.276278
vt 0.961978 0.332068
vt 0.931630 0.228111
vt 0.695070 0.184532
vt 0.664168 0.228682
vt 0.738477 0.143259
vt 0.859827 0.142009
vt 0.800901 0.110442
vt 0.793280 0.110659
vt 0.899864 0.183571
vt 0.779781 0.546778
vt 0.703375 0.538695
vt 0.933135 0.529939
vt 0.854552 0.543792
vt 0.964055 0.488325
vt 0.965127 0.511441
vt 0.962999 0.517406
vt 0.544585 0.095758
vt 0.639032 0.190883
vt 0.547965 0.190158
vt 0.642235 0.092994
vt 0.635451 0.188977
vt 0.555215 0.089174
vt 0.643522 0.092342
vt 0.546248 0.183174
vt 0.642231 0.089591
vt 0.547389 0.182087
vt 0.548139 0.088652
vt 0.646765 0.186629
vt 0.641549 0.185838
vt 0.550031 0.090583
vt 0.652771 0.090462
vt 0.540099 0.177638
vt 0.542770 0.177919
vt 0.648220 0.092126
vt 0.642707 0.188399
vt 0.549943 0.082894
vt 0.500000 0.079310
vt 0.254471 0.001286
vt 0.500000 0.006265
vt 0.251157 0.074735
vt 0.008717 0.002466
vt 0.002090 0.076130
vt 0.746408 0.001223
vt 0.749967 0.074603
vt 1.009901 0.001212
vt 1.002037 0.075664
vt 0.000328 1.012782
vt 0.000212 0.886969
vt 0.259398 0.886966
vt 0.516130 1.012781
vt 0.657831 0.886978
vt 1.000645 1.012780
vt 1.002106 0.886966
vt 0.605264 0.842756
vt 0.590433 0.614755
vt 0.505606 0.573919
vt 0.590214 0.573382
vt 0.504512 0.615114
vt 0.409671 0.573805
vt 0.409490 0.614990
vt 0.314896 0.575054
vt 0.315084 0.616522
vt 0.235946 0.577422
vt 0.233749 0.619093
vt 0.134045 0.661977
vt 0.247782 0.707387
vt 0.132607 0.707068
vt 0.248713 0.662279
vt 0.363956 0.707665
vt 0.364307 0.662546
vt 0.117094 0.743478
vt 0.384645 0.733425
vt 0.134099 0.877519
vt 0.615024 0.850868
vt 0.494647 0.736811
vt 1.001662 0.739006
vt 0.410757 0.671518
vt 0.624613 0.859536
vt 0.997822 0.870169
vt 0.378722 0.722554
vt 0.116071 0.867253
vt 0.122616 0.723855
vt 0.408924 0.868930
vt 0.480540 0.737328
vt 0.609959 0.848021
vt 0.418188 0.670051
vt 1.010138 0.743724
vt 0.995624 0.878064
vt 0.634393 0.864856
vt 0.487286 0.645201
vt 0.623253 0.644940
vt 0.487590 0.726494
vt 0.839923 0.637457
vt 0.621886 0.577754
vt 0.993372 0.725020
vt 0.838034 0.578572
vt 0.991004 0.637938
vt 0.145232 0.491464
vt 0.195559 0.559186
vt 0.144881 0.558923
vt 0.195910 0.491733
vt 0.144532 0.626405
vt 0.195205 0.626673
vt 0.145578 0.425157
vt 0.196252 0.425422
vt 0.145920 0.358864
vt 0.196596 0.359130
vt 0.196940 0.292837
vt 0.146266 0.292571
vt 0.146610 0.226263
vt 0.197285 0.226526
vt 0.197635 0.159073
vt 0.146960 0.158805
vt 0.147314 0.091323
vt 0.197983 0.091586
vt 0.064970 0.144245
vt 0.018249 0.150455
vt 0.804415 0.099404
vt 0.800966 0.334026
vt 0.801979 0.098993
vt 0.826033 0.108844
vt 0.847604 0.121203
vt 0.868413 0.136081
vt 0.887845 0.153285
vt 0.905815 0.172865
vt 0.922063 0.194605
vt 0.936178 0.217963
vt 0.947779 0.242039
vt 0.957591 0.269063
vt 0.963478 0.292903
vt 0.966832 0.318125
vt 0.968030 0.344018
vt 0.969370 0.515212
vt 0.968468 0.519370
vt 0.965192 0.521487
vt 0.933751 0.533020
vt 0.900695 0.541761
vt 0.866925 0.547939
vt 0.832769 0.551530
vt 0.800378 0.552590
vt 0.768014 0.551422
vt 0.733920 0.547660
vt 0.700213 0.541352
vt 0.667192 0.532553
vt 0.635792 0.520878
vt 0.632517 0.518736
vt 0.631639 0.514582
vt 0.633725 0.342937
vt 0.635126 0.316977
vt 0.638683 0.291714
vt 0.644767 0.267893
vt 0.654796 0.240934
vt 0.666603 0.216914
vt 0.680931 0.193622
vt 0.697376 0.171973
vt 0.715567 0.152544
vt 0.735200 0.135518
vt 0.756161 0.120800
vt 0.777851 0.108649
vt 0.799535 0.099383
vt 0.655687 0.210883
vt 0.670643 0.186535
vt 0.643335 0.235976
vt 0.632898 0.264159
vt 0.749690 0.110115
vt 0.727653 0.125534
vt 0.706958 0.143482
vt 0.687826 0.163883
vt 0.772554 0.096879
vt 0.797176 0.087431
vt 0.802025 0.087222
vt 0.806863 0.087479
vt 0.831365 0.097214
vt 0.854153 0.110536
vt 0.876059 0.126131
vt 0.896532 0.144295
vt 0.915420 0.164884
vt 0.932413 0.187605
vt 0.947212 0.211962
vt 0.959273 0.237159
vt 0.969398 0.265414
vt 0.975641 0.290390
vt 0.979177 0.316858
vt 0.981085 0.343682
vt 0.982121 0.516679
vt 0.978593 0.524774
vt 0.973204 0.531646
vt 0.938072 0.545300
vt 0.903620 0.553818
vt 0.868816 0.560215
vt 0.833679 0.563868
vt 0.800403 0.564906
vt 0.767124 0.563804
vt 0.731944 0.559908
vt 0.697330 0.553317
vt 0.662756 0.544971
vt 0.627722 0.530996
vt 0.622358 0.524087
vt 0.618868 0.516001
vt 0.620560 0.342539
vt 0.622793 0.315620
vt 0.626623 0.289131
s 1
usemtl p:Porsche_918SpyderRewardRecycled_2015BadgeA_Material1.001
f 3/1/1 2/2/2 1/3/3
f 4/4/4 2/2/2 3/1/1
f 5/5/2 2/2/2 4/4/4
f 5/5/2 4/4/4 6/6/4
f 6/6/4 4/4/4 7/7/5
f 5/5/2 6/6/4 8/8/2
f 5/5/2 8/8/2 9/9/4
f 5/5/2 9/9/4 10/10/5
f 9/9/4 8/8/2 11/11/4
f 11/11/4 8/8/2 12/12/2
f 12/12/2 8/8/2 13/13/2
f 11/11/4 12/12/2 14/14/4
f 11/11/4 14/14/4 15/15/2
f 15/15/2 14/14/4 16/16/2
f 16/16/2 14/14/4 17/17/6
f 11/11/4 15/15/2 18/18/7
f 5/5/2 19/19/2 2/2/2
f 2/2/2 19/19/2 20/20/8
f 19/19/2 22/21/2 21/22/4
f 22/21/2 19/19/2 23/23/2
f 22/21/2 23/23/2 24/24/2
f 22/21/2 24/24/2 25/25/2
f 23/23/2 19/19/2 5/5/2
f 28/26/9 27/27/10 26/28/11
f 28/26/9 29/29/12 27/27/10
f 32/30/13 31/31/14 30/32/15
f 32/30/13 33/33/16 31/31/14
f 36/34/17 35/35/18 34/36/18
f 36/34/17 37/37/18 35/35/18
f 40/38/19 39/39/20 38/40/21
f 40/38/19 41/41/22 39/39/20
f 44/42/23 43/43/24 42/44/24
f 44/42/23 45/45/25 43/43/24
f 48/26/26 47/27/27 46/29/28
f 48/26/26 49/28/29 47/27/27
f 52/30/30 51/31/31 50/33/32
f 52/30/30 53/32/33 51/31/31
f 56/35/34 55/34/35 54/36/34
f 56/35/34 57/37/36 55/34/35
f 60/38/37 59/39/38 58/41/39
f 60/38/37 61/40/40 59/39/38
f 64/42/23 63/43/41 62/45/42
f 64/42/23 65/44/41 63/43/41
f 68/46/43 67/47/44 66/48/45
f 68/46/43 69/49/46 67/47/44
f 69/49/46 70/50/47 67/47/44
f 69/49/46 71/51/48 70/50/47
f 72/52/49 68/46/43 66/48/45
f 72/52/49 73/53/50 68/46/43
f 74/54/51 73/53/50 72/52/49
f 74/54/51 75/55/52 73/53/50
f 78/56/53 77/57/54 76/58/55
f 79/59/56 78/56/53 76/58/55
f 79/59/56 76/58/55 80/60/57
f 82/61/58 79/59/56 81/60/57
f 81/60/57 83/62/59 82/61/58
f 81/60/60 85/58/61 84/63/62
f 88/64/63 87/65/64 86/66/65
f 88/64/63 89/67/66 87/65/64
f 89/67/66 90/68/67 87/65/64
f 89/67/66 91/69/68 90/68/67
f 91/69/68 92/70/69 90/68/67
f 91/69/68 93/71/70 92/70/69
f 93/71/70 94/72/71 92/70/69
f 93/71/70 95/73/72 94/72/71
f 98/74/73 97/75/74 96/76/75
f 98/74/73 99/77/76 97/75/74
f 99/77/76 100/78/77 97/75/74
f 99/77/76 101/79/78 100/78/77
f 104/80/79 103/81/80 102/82/81
f 103/81/80 105/83/82 102/82/81
f 103/81/80 106/84/83 105/83/82
f 106/84/83 107/85/84 105/83/82
f 106/84/83 103/81/80 108/86/85
f 107/85/84 109/87/86 105/83/82
f 109/87/86 107/85/84 110/88/87
f 113/89/88 112/90/89 111/91/90
f 113/89/88 114/92/91 112/90/89
f 114/92/91 113/89/88 115/93/92
f 114/92/91 115/93/92 116/94/93
f 115/93/92 113/89/88 117/95/94
f 116/94/93 115/93/92 118/96/95
f 116/94/93 118/96/95 119/97/96
f 120/98/97 116/94/93 119/97/96
f 123/99/98 122/100/99 121/101/100
f 122/100/99 124/102/101 121/101/100
f 124/102/101 122/100/99 125/103/102
f 124/102/101 126/104/103 121/101/100
f 125/103/102 127/105/101 124/102/101
f 124/102/101 128/106/102 126/104/103
f 131/107/104 130/108/105 129/109/105
f 131/107/104 132/110/104 130/108/105
f 130/108/105 133/111/105 129/109/105
f 130/108/105 134/112/104 133/111/105
f 135/113/104 132/110/104 131/107/104
f 135/113/104 136/114/105 132/110/104
f 137/115/106 136/114/105 135/113/104
f 137/115/106 138/116/106 136/114/105
f 139/117/107 138/116/106 137/115/106
f 139/117/107 137/115/106 140/118/107
f 141/119/107 139/117/107 140/118/107
f 141/119/107 142/120/108 139/117/107
f 143/121/107 142/120/108 141/119/107
f 143/121/107 141/119/107 144/122/108
f 145/123/107 143/121/107 144/122/108
f 145/123/107 146/124/109 143/121/107
f 149/125/105 148/126/106 147/126/110
f 149/125/105 150/125/111 148/126/106
f 153/127/112 152/128/113 151/129/114
f 154/130/115 152/128/113 153/127/112
f 155/131/116 152/128/113 154/130/115
f 156/132/117 152/128/113 155/131/116
f 157/133/113 152/128/113 156/132/117
f 158/134/113 152/128/113 157/133/113
f 159/135/118 152/128/113 158/134/113
f 160/136/113 152/128/113 159/135/118
f 161/137/119 152/128/113 160/136/113
f 162/138/113 152/128/113 161/137/119
f 163/139/120 152/128/113 162/138/113
f 163/139/120 164/140/113 152/128/113
f 165/141/121 152/128/113 164/140/113
f 166/142/122 152/128/113 165/141/121
f 167/143/115 152/128/113 166/142/122
f 152/128/113 167/143/115 168/144/115
f 152/128/113 168/144/115 169/145/113
f 170/146/123 152/128/113 169/145/113
f 171/147/118 152/128/113 170/146/123
f 172/148/124 152/128/113 171/147/118
f 173/149/125 152/128/113 172/148/124
f 152/128/113 173/149/125 174/150/118
f 152/128/113 174/150/118 175/151/116
f 152/128/113 175/151/116 176/152/124
f 152/128/113 176/152/124 177/153/113
f 178/154/118 152/128/113 177/153/113
f 179/155/124 152/128/113 178/154/118
f 152/128/113 179/155/124 180/156/126
f 152/128/113 180/156/126 181/157/127
f 152/128/113 181/157/127 182/158/117
f 182/158/117 183/159/117 152/128/113
f 152/128/113 183/159/117 184/160/117
f 152/128/113 184/160/117 185/161/113
f 152/128/113 185/161/113 186/162/113
f 152/128/113 186/162/113 187/163/123
f 152/128/113 187/163/123 188/164/117
f 152/128/113 188/164/117 189/165/113
f 152/128/113 189/165/113 190/166/113
f 152/128/113 190/166/113 191/167/118
f 152/128/113 191/167/118 192/168/115
f 152/128/113 192/168/115 193/169/126
f 152/128/113 193/169/126 151/129/114
f 194/170/128 187/163/123 186/162/113
f 194/170/128 195/171/129 187/163/123
f 195/171/129 188/164/117 187/163/123
f 196/172/130 186/162/113 185/161/113
f 196/172/130 194/170/128 186/162/113
f 197/173/131 185/161/113 184/160/117
f 197/173/131 196/172/130 185/161/113
f 190/166/113 198/174/132 191/167/118
f 190/166/113 199/175/133 198/174/132
f 189/165/113 199/175/133 190/166/113
f 189/165/113 200/176/134 199/175/133
f 201/177/135 189/165/113 188/164/117
f 201/177/135 200/176/134 189/165/113
f 195/171/129 201/177/135 188/164/117
f 191/167/118 202/178/136 192/168/115
f 191/167/118 198/174/132 202/178/136
f 202/178/136 193/169/126 192/168/115
f 202/178/136 203/179/137 193/169/126
f 203/179/137 151/129/114 193/169/126
f 203/179/137 204/180/138 151/129/114
f 151/129/114 204/180/138 205/181/139
f 151/129/114 205/181/139 153/127/112
f 153/127/112 205/181/139 206/182/140
f 153/127/112 206/182/140 154/130/115
f 206/182/140 155/131/116 154/130/115
f 206/182/140 207/183/141 155/131/116
f 207/183/141 156/132/117 155/131/116
f 207/183/141 208/184/142 156/132/117
f 156/132/117 208/184/142 209/185/143
f 156/132/117 209/185/143 157/133/113
f 157/133/113 209/185/143 210/186/144
f 157/133/113 210/186/144 158/134/113
f 158/134/113 210/186/144 211/187/145
f 158/134/113 211/187/145 159/135/118
f 159/135/118 211/187/145 212/188/146
f 159/135/118 212/188/146 160/136/113
f 160/136/113 212/188/146 213/189/147
f 160/136/113 213/189/147 161/137/119
f 161/137/119 213/189/147 214/190/148
f 161/137/119 214/190/148 162/138/113
f 162/138/113 214/190/148 215/191/149
f 162/138/113 215/191/149 163/139/120
f 163/139/120 215/191/149 216/192/150
f 163/139/120 216/192/150 164/140/113
f 164/140/113 216/192/150 217/193/151
f 164/140/113 217/193/151 165/141/121
f 217/193/151 166/142/122 165/141/121
f 217/193/151 218/194/152 166/142/122
f 218/194/152 167/143/115 166/142/122
f 218/194/152 219/195/153 167/143/115
f 167/143/115 219/195/153 220/196/154
f 167/143/115 220/196/154 168/144/115
f 168/144/115 220/196/154 221/197/155
f 168/144/115 221/197/155 169/145/113
f 221/197/155 170/146/123 169/145/113
f 221/197/155 222/198/156 170/146/123
f 222/198/156 171/147/118 170/146/123
f 222/198/156 223/199/157 171/147/118
f 223/199/157 172/148/124 171/147/118
f 223/199/157 224/200/158 172/148/124
f 172/148/124 224/200/158 225/201/159
f 172/148/124 225/201/159 173/149/125
f 173/149/125 225/201/159 226/202/160
f 173/149/125 226/202/160 174/150/118
f 174/150/118 226/202/160 227/203/161
f 174/150/118 227/203/161 175/151/116
f 175/151/116 227/203/161 228/204/162
f 175/151/116 228/204/162 176/152/124
f 176/152/124 228/204/162 229/205/163
f 176/152/124 229/205/163 177/153/113
f 229/205/163 178/154/118 177/153/113
f 229/205/163 230/206/164 178/154/118
f 230/206/164 179/155/124 178/154/118
f 230/206/164 231/207/165 179/155/124
f 179/155/124 231/207/165 232/208/166
f 179/155/124 232/208/166 180/156/126
f 180/156/126 232/208/166 233/209/167
f 180/156/126 233/209/167 181/157/127
f 233/209/167 182/158/117 181/157/127
f 233/209/167 234/210/168 182/158/117
f 234/210/168 183/159/117 182/158/117
f 234/210/168 235/211/169 183/159/117
f 235/211/169 184/160/117 183/159/117
f 235/211/169 197/173/131 184/160/117
