# Blender 5.1.2
# www.blender.org
mtllib Windshield.mtl
o p:Kit1_Window_Geo_lodA_Kit1_Window_Geo_lodA_Porsche_918SpyderRewardRecycled_2015Window_Material.001
v 0.004640 0.010106 0.004793
v 0.004931 0.009341 0.006031
v 0.003745 0.010197 0.005135
v 0.003977 0.009441 0.006490
v 0.005634 0.009240 0.005569
v 0.005248 0.010006 0.004488
v 0.005208 0.008543 0.007242
v 0.004195 0.008667 0.007760
v 0.004427 0.010685 0.003738
v 0.003518 0.010851 0.003835
v 0.002709 0.010270 0.005386
v 0.002534 0.010941 0.003927
v 0.001406 0.010327 0.005558
v 0.001343 0.011002 0.003991
v 0.000000 0.011026 0.004011
v 0.000000 0.010342 0.005627
v 0.004935 0.010546 0.003678
v 0.005059 0.010496 0.003679
v 0.005247 0.007901 0.008289
v 0.004694 0.007934 0.008659
v 0.001462 0.009550 0.007137
v 0.000000 0.009557 0.007243
v 0.002883 0.009504 0.006860
v 0.001520 0.008780 0.008537
v 0.000000 0.008779 0.008672
v 0.001004 0.008041 0.009828
v 0.000000 0.008060 0.009883
v 0.003042 0.008732 0.008201
v 0.002717 0.008000 0.009508
v 0.001897 0.008022 0.009698
v 0.004059 0.007963 0.009002
v 0.003448 0.007985 0.009268
v -0.001004 0.008041 0.009828
v -0.001520 0.008780 0.008537
v -0.001462 0.009550 0.007137
v -0.001406 0.010327 0.005558
v -0.001343 0.011002 0.003991
v -0.002534 0.010941 0.003927
v -0.002709 0.010270 0.005386
v -0.003518 0.010851 0.003835
v -0.003745 0.010197 0.005135
v -0.004427 0.010685 0.003738
v -0.004640 0.010106 0.004793
v -0.004931 0.009341 0.006031
v -0.003977 0.009441 0.006490
v -0.005634 0.009240 0.005569
v -0.005248 0.010006 0.004488
v -0.005208 0.008543 0.007242
v -0.004195 0.008667 0.007760
v -0.006026 0.008429 0.006625
v -0.004935 0.010546 0.003678
v -0.005059 0.010496 0.003679
v -0.006288 0.007829 0.007388
v -0.006398 0.007823 0.007234
v -0.005833 0.007861 0.007804
v -0.005247 0.007901 0.008289
v -0.004694 0.007934 0.008659
v -0.005778 0.009530 0.004823
v -0.006028 0.009048 0.005441
v -0.005528 0.009949 0.004285
v -0.005310 0.010286 0.003851
v -0.006333 0.008381 0.006286
v -0.006449 0.008104 0.006633
v -0.006483 0.007994 0.006787
v -0.006491 0.007914 0.006925
v -0.005163 0.010435 0.003707
v -0.005241 0.010370 0.003757
v -0.006470 0.007855 0.007067
v 0.005163 0.010435 0.003707
v 0.005241 0.010370 0.003757
v 0.005310 0.010286 0.003851
v 0.005528 0.009949 0.004285
v 0.005778 0.009530 0.004823
v 0.006028 0.009048 0.005441
v 0.006333 0.008381 0.006286
v 0.006026 0.008429 0.006625
v 0.006449 0.008104 0.006633
v 0.006483 0.007994 0.006787
v 0.006491 0.007914 0.006925
v 0.006470 0.007855 0.007067
v 0.006398 0.007823 0.007234
v 0.006288 0.007829 0.007388
v 0.005833 0.007861 0.007804
v -0.003448 0.007985 0.009268
v -0.004059 0.007963 0.009002
v -0.003042 0.008732 0.008201
v -0.002883 0.009504 0.006860
v -0.002717 0.008000 0.009508
v -0.001897 0.008022 0.009698
vn 0.2296 0.8685 0.4393
vn 0.3592 0.8182 0.4490
vn 0.3107 0.8420 0.4410
vn 0.2690 0.8471 0.4584
vn 0.4231 0.7958 0.4332
vn 0.3711 0.8224 0.4313
vn 0.3977 0.7954 0.4574
vn 0.3000 0.8301 0.4701
vn 0.2703 0.8709 0.4104
vn 0.1999 0.8899 0.4100
vn 0.1591 0.8850 0.4375
vn 0.1303 0.9023 0.4110
vn 0.0697 0.8962 0.4381
vn 0.0602 0.9138 0.4017
vn -0.0000 0.9171 0.3987
vn -0.0000 0.9023 0.4311
vn 0.3301 0.8502 0.4101
vn 0.3390 0.8474 0.4087
vn 0.4105 0.7810 0.4706
vn 0.3600 0.8000 0.4800
vn 0.0799 0.8793 0.4696
vn -0.0000 0.8821 0.4711
vn 0.1799 0.8696 0.4598
vn 0.0898 0.8678 0.4888
vn -0.0000 0.8713 0.4907
vn 0.0599 0.8586 0.5092
vn -0.0000 0.8602 0.5100
vn 0.2007 0.8530 0.4817
vn 0.1811 0.8451 0.5030
vn 0.1202 0.8513 0.5108
vn 0.2905 0.8214 0.4908
vn 0.2404 0.8315 0.5009
vn -0.0599 0.8586 0.5092
vn -0.0898 0.8678 0.4888
vn -0.0799 0.8793 0.4696
vn -0.0697 0.8962 0.4382
vn -0.0602 0.9138 0.4017
vn -0.1303 0.9023 0.4110
vn -0.1591 0.8850 0.4375
vn -0.1999 0.8899 0.4100
vn -0.2296 0.8685 0.4393
vn -0.2703 0.8709 0.4104
vn -0.3107 0.8420 0.4410
vn -0.3592 0.8182 0.4490
vn -0.2690 0.8471 0.4584
vn -0.4231 0.7958 0.4332
vn -0.3711 0.8224 0.4313
vn -0.3977 0.7954 0.4574
vn -0.3000 0.8301 0.4701
vn -0.4719 0.7630 0.4418
vn -0.3301 0.8502 0.4101
vn -0.3390 0.8474 0.4087
vn -0.5000 0.7400 0.4500
vn -0.5097 0.7395 0.4397
vn -0.4598 0.7597 0.4598
vn -0.4105 0.7810 0.4706
vn -0.3600 0.8000 0.4800
vn -0.4313 0.7924 0.4313
vn -0.4703 0.7705 0.4303
vn -0.4015 0.8130 0.4216
vn -0.3798 0.8294 0.4097
vn -0.5007 0.7510 0.4305
vn -0.5170 0.7357 0.4375
vn -0.5208 0.7311 0.4407
vn -0.3594 0.8386 0.4093
vn -0.3681 0.8356 0.4078
vn 0.3681 0.8356 0.4078
vn 0.3594 0.8386 0.4093
vn 0.3798 0.8294 0.4097
vn 0.4015 0.8130 0.4216
vn 0.4313 0.7924 0.4313
vn 0.4703 0.7705 0.4303
vn 0.5007 0.7510 0.4305
vn 0.4719 0.7630 0.4418
vn 0.5170 0.7357 0.4375
vn 0.5208 0.7311 0.4407
vn 0.5097 0.7395 0.4397
vn 0.5000 0.7400 0.4500
vn 0.4598 0.7597 0.4598
vn -0.2007 0.8530 0.4817
vn -0.2905 0.8214 0.4908
vn -0.2404 0.8315 0.5009
vn -0.1799 0.8696 0.4598
vn -0.1811 0.8451 0.5030
vn -0.1202 0.8513 0.5108
vt 0.945455 0.064802
vt 0.944447 0.062134
vt 0.945840 0.062788
vt 0.943932 0.064280
vt 0.944967 0.060551
vt 0.946184 0.061420
vt 0.943085 0.061509
vt 0.942503 0.063789
vt 0.947026 0.063267
vt 0.946918 0.065313
vt 0.945173 0.067132
vt 0.946814 0.067526
vt 0.944980 0.070062
vt 0.946742 0.070204
vt 0.946720 0.073226
vt 0.944902 0.073226
vt 0.947095 0.062124
vt 0.947093 0.061845
vt 0.941908 0.061423
vt 0.941491 0.062665
vt 0.943204 0.069937
vt 0.943084 0.073226
vt 0.943515 0.066741
vt 0.941629 0.069807
vt 0.941477 0.073226
vt 0.940176 0.070968
vt 0.940096 0.073226
vt 0.942007 0.066383
vt 0.940537 0.067114
vt 0.940322 0.068959
vt 0.941106 0.064094
vt 0.940807 0.065469
vt 0.940176 0.075485
vt 0.941629 0.076646
vt 0.943204 0.076515
vt 0.944980 0.076390
vt 0.946742 0.076249
vt 0.946814 0.078926
vt 0.945173 0.079320
vt 0.946918 0.081140
vt 0.945455 0.081650
vt 0.947026 0.083186
vt 0.945840 0.083664
vt 0.944447 0.084319
vt 0.943932 0.082173
vt 0.944967 0.085902
vt 0.946184 0.085032
vt 0.943085 0.084943
vt 0.942503 0.082663
vt 0.943780 0.086782
vt 0.947095 0.084328
vt 0.947093 0.084607
vt 0.942921 0.087372
vt 0.943094 0.087619
vt 0.942453 0.086349
vt 0.941908 0.085030
vt 0.941491 0.083787
vt 0.945806 0.086224
vt 0.945112 0.086786
vt 0.946411 0.085662
vt 0.946900 0.085172
vt 0.944161 0.087473
vt 0.943771 0.087735
vt 0.943597 0.087810
vt 0.943442 0.087829
vt 0.947061 0.084840
vt 0.947005 0.085017
vt 0.943283 0.087781
vt 0.947005 0.061436
vt 0.947061 0.061612
vt 0.946900 0.061281
vt 0.946411 0.060791
vt 0.945806 0.060229
vt 0.945112 0.059666
vt 0.944161 0.058980
vt 0.943780 0.059670
vt 0.943771 0.058717
vt 0.943597 0.058642
vt 0.943442 0.058623
vt 0.943283 0.058672
vt 0.943094 0.058833
vt 0.942921 0.059080
vt 0.942453 0.060103
vt 0.942007 0.080069
vt 0.941106 0.082359
vt 0.940807 0.080983
vt 0.943515 0.079712
vt 0.940537 0.079338
vt 0.940322 0.077494
s 1
usemtl p:Porsche_918SpyderRewardRecycled_2015Window_Material1.001
f 3/1/1 2/2/2 1/3/3
f 3/1/1 4/4/4 2/2/2
f 1/3/3 2/2/2 5/5/5
f 1/3/3 5/5/5 6/6/6
f 4/4/4 7/7/7 2/2/2
f 5/5/5 2/2/2 7/7/7
f 4/4/4 8/8/8 7/7/7
f 9/9/9 3/1/1 1/3/3
f 9/9/9 10/10/10 3/1/1
f 11/11/11 3/1/1 10/10/10
f 4/4/4 3/1/1 11/11/11
f 11/11/11 10/10/10 12/12/12
f 12/12/12 13/13/13 11/11/11
f 12/12/12 14/14/14 13/13/13
f 13/13/13 14/14/14 15/15/15
f 13/13/13 15/15/15 16/16/16
f 17/17/17 1/3/3 6/6/6
f 17/17/17 9/9/9 1/3/3
f 6/6/6 18/18/18 17/17/17
f 8/8/8 19/19/19 7/7/7
f 8/8/8 20/20/20 19/19/19
f 21/21/21 13/13/13 16/16/16
f 21/21/21 16/16/16 22/22/22
f 23/23/23 13/13/13 21/21/21
f 23/23/23 11/11/11 13/13/13
f 4/4/4 11/11/11 23/23/23
f 24/24/24 21/21/21 22/22/22
f 24/24/24 22/22/22 25/25/25
f 25/25/25 26/26/26 24/24/24
f 25/25/25 27/27/27 26/26/26
f 28/28/28 21/21/21 24/24/24
f 28/28/28 23/23/23 21/21/21
f 24/24/24 29/29/29 28/28/28
f 24/24/24 30/30/30 29/29/29
f 24/24/24 26/26/26 30/30/30
f 8/8/8 23/23/23 28/28/28
f 8/8/8 4/4/4 23/23/23
f 28/28/28 31/31/31 8/8/8
f 8/8/8 31/31/31 20/20/20
f 28/28/28 32/32/32 31/31/31
f 29/29/29 32/32/32 28/28/28
f 25/25/25 33/33/33 27/27/27
f 25/25/25 34/34/34 33/33/33
f 34/34/34 25/25/25 22/22/22
f 34/34/34 22/22/22 35/35/35
f 35/35/35 22/22/22 16/16/16
f 35/35/35 16/16/16 36/36/36
f 15/15/15 36/36/36 16/16/16
f 15/15/15 37/37/37 36/36/36
f 38/38/38 36/36/36 37/37/37
f 38/38/38 39/39/39 36/36/36
f 40/40/40 39/39/39 38/38/38
f 40/40/40 41/41/41 39/39/39
f 42/42/42 41/41/41 40/40/40
f 42/42/42 43/43/43 41/41/41
f 41/41/41 43/43/43 44/44/44
f 41/41/41 44/44/44 45/45/45
f 45/45/45 39/39/39 41/41/41
f 43/43/43 46/46/46 44/44/44
f 43/43/43 47/47/47 46/46/46
f 45/45/45 44/44/44 48/48/48
f 48/48/48 44/44/44 46/46/46
f 45/45/45 48/48/48 49/49/49
f 48/48/48 46/46/46 50/50/50
f 51/51/51 43/43/43 42/42/42
f 51/51/51 47/47/47 43/43/43
f 52/52/52 47/47/47 51/51/51
f 48/48/48 50/50/50 53/53/53
f 53/53/53 50/50/50 54/54/54
f 48/48/48 53/53/53 55/55/55
f 49/49/49 48/48/48 56/56/56
f 56/56/56 48/48/48 55/55/55
f 49/49/49 56/56/56 57/57/57
f 58/58/58 46/46/46 47/47/47
f 58/58/58 59/59/59 46/46/46
f 58/58/58 47/47/47 60/60/60
f 61/61/61 60/60/60 47/47/47
f 62/62/62 46/46/46 59/59/59
f 50/50/50 62/62/62 63/63/63
f 63/63/63 64/64/64 50/50/50
f 62/62/62 50/50/50 46/46/46
f 64/64/64 65/65/64 50/50/50
f 52/52/52 66/66/65 47/47/47
f 67/67/66 47/47/47 66/66/65
f 67/67/66 61/61/61 47/47/47
f 65/65/64 68/68/64 50/50/50
f 50/50/50 68/68/64 54/54/54
f 6/6/6 70/69/67 69/70/68
f 69/70/68 18/18/18 6/6/6
f 71/71/69 70/69/67 6/6/6
f 72/72/70 71/71/69 6/6/6
f 73/73/71 72/72/70 6/6/6
f 73/73/71 6/6/6 5/5/5
f 74/74/72 73/73/71 5/5/5
f 75/75/73 74/74/72 5/5/5
f 75/75/73 5/5/5 76/76/74
f 75/75/73 76/76/74 77/77/75
f 78/78/76 77/77/75 76/76/74
f 79/79/76 78/78/76 76/76/74
f 80/80/76 79/79/76 76/76/74
f 80/80/76 76/76/74 81/81/77
f 76/76/74 82/82/78 81/81/77
f 7/7/7 82/82/78 76/76/74
f 5/5/5 7/7/7 76/76/74
f 7/7/7 83/83/79 82/82/78
f 7/7/7 19/19/19 83/83/79
f 86/84/80 85/85/81 84/86/82
f 86/84/80 49/49/49 85/85/81
f 49/49/49 86/84/80 87/87/83
f 86/84/80 35/35/35 87/87/83
f 87/87/83 35/35/35 36/36/36
f 87/87/83 36/36/36 39/39/39
f 45/45/45 87/87/83 39/39/39
f 49/49/49 87/87/83 45/45/45
f 86/84/80 34/34/34 35/35/35
f 34/34/34 86/84/80 88/88/84
f 84/86/82 88/88/84 86/84/80
f 34/34/34 88/88/84 89/89/85
f 85/85/81 49/49/49 57/57/57
f 33/33/33 34/34/34 89/89/85
