# Blender 5.1.2
# www.blender.org
mtllib Windshield.mtl
o p:Kit1_Window_Geo_lodA_Kit1_Window_Geo_lodA_Porsche_918SpyderRewardRecycled_2015Window_Material.001
v -1.170744 1.276981 2.261600
v -1.214926 1.162231 2.076025
v -1.036641 1.290631 2.209915
v -1.072024 1.177232 2.006766
v -1.320177 1.147081 2.145627
v -1.261813 1.261981 2.307611
v -1.256996 1.042531 1.894495
v -1.105269 1.061131 1.816360
v -1.138341 1.363831 2.419757
v -1.002033 1.388731 2.404817
v -0.881350 1.301581 2.171820
v -0.854473 1.402231 2.390594
v -0.685975 1.310131 2.145461
v -0.675852 1.411381 2.380483
v -0.474411 1.414981 2.376906
v -0.475105 1.312381 2.134507
v -1.214515 1.342981 2.428976
v -1.233115 1.335481 2.428879
v -1.263296 0.946232 1.737463
v -1.180505 0.951182 1.681725
v -0.695053 1.193581 1.908636
v -0.475800 1.194632 1.892108
v -0.908083 1.186682 1.950796
v -0.704355 1.078081 1.698662
v -0.476413 1.077931 1.677759
v -0.627509 0.967232 1.504791
v -0.476934 0.970082 1.496109
v -0.932509 1.070882 1.749715
v -0.884321 0.961082 1.553527
v -0.761403 0.964382 1.524674
v -1.085403 0.955532 1.630003
v -0.993867 0.958831 1.589840
v -0.326311 0.967232 1.503928
v -0.248356 1.078081 1.697356
v -0.256455 1.193581 1.907380
v -0.264176 1.310131 2.144253
v -0.272953 1.411381 2.379329
v -0.094276 1.402231 2.388417
v -0.068653 1.301581 2.169493
v 0.053362 1.388731 2.401794
v 0.086854 1.290631 2.206697
v 0.189754 1.363831 2.415953
v 0.221250 1.276981 2.257613
v 0.264368 1.162231 2.071788
v 0.121071 1.177232 2.003349
v 0.370016 1.147081 2.140786
v 0.312581 1.261981 2.303101
v 0.305398 1.042531 1.890020
v 0.153226 1.061131 1.812756
v 0.428362 1.025432 1.982218
v 0.265979 1.342981 2.424735
v 0.284579 1.335481 2.424532
v 0.467334 0.935432 1.867656
v 0.483900 0.934532 1.890709
v 0.398906 0.940232 1.805452
v 0.310798 0.946232 1.732954
v 0.227689 0.951182 1.677692
v 0.391937 1.190581 2.252624
v 0.429171 1.118281 2.159817
v 0.354668 1.253431 2.333431
v 0.322154 1.303981 2.398624
v 0.474558 1.018231 2.032936
v 0.491809 0.976682 1.980837
v 0.496842 0.960182 1.957722
v 0.497983 0.948182 1.937019
v 0.300166 1.326331 2.420287
v 0.311845 1.316581 2.412754
v 0.494772 0.939331 1.915728
v -1.248727 1.326331 2.424724
v -1.260449 1.316581 2.417257
v -1.270839 1.303981 2.403187
v -1.303725 1.253431 2.338181
v -1.341456 1.190581 2.257589
v -1.379222 1.118281 2.164996
v -1.425334 1.018231 2.038378
v -1.379430 1.025432 1.987396
v -1.442883 0.976682 1.986378
v -1.448050 0.960182 1.963293
v -1.449309 0.948182 1.942596
v -1.446220 0.939331 1.921287
v -1.435492 0.934532 1.896206
v -1.419058 0.935432 1.873059
v -1.350987 0.940232 1.810464
v 0.040528 0.958831 1.586878
v 0.132292 0.955532 1.626515
v -0.019913 1.070882 1.747101
v -0.043187 1.186682 1.948319
v -0.069224 0.961082 1.551192
v -0.192305 0.964382 1.523044
vn -0.2309 0.8685 -0.4386
vn -0.3605 0.8182 -0.4479
vn -0.3120 0.8420 -0.4401
vn -0.2703 0.8471 -0.4576
vn -0.4243 0.7958 -0.4320
vn -0.3723 0.8224 -0.4302
vn -0.3990 0.7954 -0.4562
vn -0.3013 0.8301 -0.4692
vn -0.2715 0.8709 -0.4096
vn -0.2010 0.8899 -0.4094
vn -0.1604 0.8850 -0.4371
vn -0.1315 0.9023 -0.4106
vn -0.0710 0.8962 -0.4379
vn -0.0613 0.9138 -0.4015
vn -0.0011 0.9171 -0.3987
vn -0.0012 0.9023 -0.4311
vn -0.3313 0.8502 -0.4091
vn -0.3402 0.8474 -0.4077
vn -0.4118 0.7810 -0.4694
vn -0.3614 0.8000 -0.4790
vn -0.0812 0.8793 -0.4694
vn -0.0013 0.8821 -0.4711
vn -0.1812 0.8696 -0.4593
vn -0.0912 0.8678 -0.4885
vn -0.0014 0.8713 -0.4907
vn -0.0614 0.8586 -0.5090
vn -0.0015 0.8602 -0.5100
vn -0.2021 0.8530 -0.4811
vn -0.1826 0.8451 -0.5025
vn -0.1217 0.8513 -0.5104
vn -0.2919 0.8214 -0.4900
vn -0.2418 0.8315 -0.5002
vn 0.0584 0.8586 -0.5093
vn 0.0884 0.8678 -0.4891
vn 0.0786 0.8793 -0.4698
vn 0.0684 0.8962 -0.4384
vn 0.0590 0.9138 -0.4019
vn 0.1291 0.9023 -0.4114
vn 0.1579 0.8850 -0.4380
vn 0.1987 0.8899 -0.4106
vn 0.2283 0.8685 -0.4400
vn 0.2691 0.8709 -0.4112
vn 0.3094 0.8420 -0.4419
vn 0.3579 0.8182 -0.4500
vn 0.2677 0.8471 -0.4592
vn 0.4219 0.7958 -0.4344
vn 0.3699 0.8224 -0.4323
vn 0.3964 0.7954 -0.4585
vn 0.2986 0.8301 -0.4709
vn 0.4706 0.7630 -0.4431
vn 0.3289 0.8502 -0.4110
vn 0.3378 0.8474 -0.4097
vn 0.4987 0.7400 -0.4514
vn 0.5085 0.7395 -0.4411
vn 0.4585 0.7597 -0.4611
vn 0.4091 0.7810 -0.4718
vn 0.3586 0.8000 -0.4810
vn 0.4301 0.7924 -0.4325
vn 0.4691 0.7705 -0.4316
vn 0.4003 0.8130 -0.4228
vn 0.3786 0.8294 -0.4108
vn 0.4995 0.7510 -0.4319
vn 0.5158 0.7357 -0.4390
vn 0.5196 0.7311 -0.4422
vn 0.3582 0.8386 -0.4103
vn 0.3670 0.8356 -0.4088
vn -0.3693 0.8356 -0.4067
vn -0.3606 0.8386 -0.4083
vn -0.3810 0.8294 -0.4086
vn -0.4027 0.8130 -0.4205
vn -0.4326 0.7924 -0.4301
vn -0.4716 0.7705 -0.4289
vn -0.5019 0.7510 -0.4290
vn -0.4732 0.7630 -0.4404
vn -0.5183 0.7357 -0.4360
vn -0.5221 0.7311 -0.4392
vn -0.5110 0.7395 -0.4382
vn -0.5013 0.7400 -0.4485
vn -0.4611 0.7597 -0.4585
vn 0.1993 0.8530 -0.4823
vn 0.2891 0.8214 -0.4916
vn 0.2389 0.8315 -0.5016
vn 0.1786 0.8696 -0.4603
vn 0.1797 0.8451 -0.5035
vn 0.1187 0.8513 -0.5111
vt 0.945455 0.064802
vt 0.944447 0.062134
vt 0.945840 0.062788
vt 0.943932 0.064280
vt 0.944967 0.060551
vt 0.946184 0.061420
vt 0.943085 0.061509
vt 0.942503 0.063789
vt 0.947026 0.063267
vt 0.946918 0.065313
vt 0.945173 0.067132
vt 0.946814 0.067526
vt 0.944980 0.070062
vt 0.946742 0.070204
vt 0.946720 0.073226
vt 0.944902 0.073226
vt 0.947095 0.062124
vt 0.947093 0.061845
vt 0.941908 0.061423
vt 0.941491 0.062665
vt 0.943204 0.069937
vt 0.943084 0.073226
vt 0.943515 0.066741
vt 0.941629 0.069807
vt 0.941477 0.073226
vt 0.940176 0.070968
vt 0.940096 0.073226
vt 0.942007 0.066383
vt 0.940537 0.067114
vt 0.940322 0.068959
vt 0.941106 0.064094
vt 0.940807 0.065469
vt 0.940176 0.075485
vt 0.941629 0.076646
vt 0.943204 0.076515
vt 0.944980 0.076390
vt 0.946742 0.076249
vt 0.946814 0.078926
vt 0.945173 0.079320
vt 0.946918 0.081140
vt 0.945455 0.081650
vt 0.947026 0.083186
vt 0.945840 0.083664
vt 0.944447 0.084319
vt 0.943932 0.082173
vt 0.944967 0.085902
vt 0.946184 0.085032
vt 0.943085 0.084943
vt 0.942503 0.082663
vt 0.943780 0.086782
vt 0.947095 0.084328
vt 0.947093 0.084607
vt 0.942921 0.087372
vt 0.943094 0.087619
vt 0.942453 0.086349
vt 0.941908 0.085030
vt 0.941491 0.083787
vt 0.945806 0.086224
vt 0.945112 0.086786
vt 0.946411 0.085662
vt 0.946900 0.085172
vt 0.944161 0.087473
vt 0.943771 0.087735
vt 0.943597 0.087810
vt 0.943442 0.087829
vt 0.947061 0.084840
vt 0.947005 0.085017
vt 0.943283 0.087781
vt 0.947005 0.061436
vt 0.947061 0.061612
vt 0.946900 0.061281
vt 0.946411 0.060791
vt 0.945806 0.060229
vt 0.945112 0.059666
vt 0.944161 0.058980
vt 0.943780 0.059670
vt 0.943771 0.058717
vt 0.943597 0.058642
vt 0.943442 0.058623
vt 0.943283 0.058672
vt 0.943094 0.058833
vt 0.942921 0.059080
vt 0.942453 0.060103
vt 0.942007 0.080069
vt 0.941106 0.082359
vt 0.940807 0.080983
vt 0.943515 0.079712
vt 0.940537 0.079338
vt 0.940322 0.077494
s 1
usemtl p:Porsche_918SpyderRewardRecycled_2015Window_Material1.001
f 3/1/1 2/2/2 1/3/3
f 3/1/1 4/4/4 2/2/2
f 1/3/3 2/2/2 5/5/5
f 1/3/3 5/5/5 6/6/6
f 4/4/4 7/7/7 2/2/2
f 5/5/5 2/2/2 7/7/7
f 4/4/4 8/8/8 7/7/7
f 9/9/9 3/1/1 1/3/3
f 9/9/9 10/10/10 3/1/1
f 11/11/11 3/1/1 10/10/10
f 4/4/4 3/1/1 11/11/11
f 11/11/11 10/10/10 12/12/12
f 12/12/12 13/13/13 11/11/11
f 12/12/12 14/14/14 13/13/13
f 13/13/13 14/14/14 15/15/15
f 13/13/13 15/15/15 16/16/16
f 17/17/17 1/3/3 6/6/6
f 17/17/17 9/9/9 1/3/3
f 6/6/6 18/18/18 17/17/17
f 8/8/8 19/19/19 7/7/7
f 8/8/8 20/20/20 19/19/19
f 21/21/21 13/13/13 16/16/16
f 21/21/21 16/16/16 22/22/22
f 23/23/23 13/13/13 21/21/21
f 23/23/23 11/11/11 13/13/13
f 4/4/4 11/11/11 23/23/23
f 24/24/24 21/21/21 22/22/22
f 24/24/24 22/22/22 25/25/25
f 25/25/25 26/26/26 24/24/24
f 25/25/25 27/27/27 26/26/26
f 28/28/28 21/21/21 24/24/24
f 28/28/28 23/23/23 21/21/21
f 24/24/24 29/29/29 28/28/28
f 24/24/24 30/30/30 29/29/29
f 24/24/24 26/26/26 30/30/30
f 8/8/8 23/23/23 28/28/28
f 8/8/8 4/4/4 23/23/23
f 28/28/28 31/31/31 8/8/8
f 8/8/8 31/31/31 20/20/20
f 28/28/28 32/32/32 31/31/31
f 29/29/29 32/32/32 28/28/28
f 25/25/25 33/33/33 27/27/27
f 25/25/25 34/34/34 33/33/33
f 34/34/34 25/25/25 22/22/22
f 34/34/34 22/22/22 35/35/35
f 35/35/35 22/22/22 16/16/16
f 35/35/35 16/16/16 36/36/36
f 15/15/15 36/36/36 16/16/16
f 15/15/15 37/37/37 36/36/36
f 38/38/38 36/36/36 37/37/37
f 38/38/38 39/39/39 36/36/36
f 40/40/40 39/39/39 38/38/38
f 40/40/40 41/41/41 39/39/39
f 42/42/42 41/41/41 40/40/40
f 42/42/42 43/43/43 41/41/41
f 41/41/41 43/43/43 44/44/44
f 41/41/41 44/44/44 45/45/45
f 45/45/45 39/39/39 41/41/41
f 43/43/43 46/46/46 44/44/44
f 43/43/43 47/47/47 46/46/46
f 45/45/45 44/44/44 48/48/48
f 48/48/48 44/44/44 46/46/46
f 45/45/45 48/48/48 49/49/49
f 48/48/48 46/46/46 50/50/50
f 51/51/51 43/43/43 42/42/42
f 51/51/51 47/47/47 43/43/43
f 52/52/52 47/47/47 51/51/51
f 48/48/48 50/50/50 53/53/53
f 53/53/53 50/50/50 54/54/54
f 48/48/48 53/53/53 55/55/55
f 49/49/49 48/48/48 56/56/56
f 56/56/56 48/48/48 55/55/55
f 49/49/49 56/56/56 57/57/57
f 58/58/58 46/46/46 47/47/47
f 58/58/58 59/59/59 46/46/46
f 58/58/58 47/47/47 60/60/60
f 61/61/61 60/60/60 47/47/47
f 62/62/62 46/46/46 59/59/59
f 50/50/50 62/62/62 63/63/63
f 63/63/63 64/64/64 50/50/50
f 62/62/62 50/50/50 46/46/46
f 64/64/64 65/65/64 50/50/50
f 52/52/52 66/66/65 47/47/47
f 67/67/66 47/47/47 66/66/65
f 67/67/66 61/61/61 47/47/47
f 65/65/64 68/68/64 50/50/50
f 50/50/50 68/68/64 54/54/54
f 6/6/6 70/69/67 69/70/68
f 69/70/68 18/18/18 6/6/6
f 71/71/69 70/69/67 6/6/6
f 72/72/70 71/71/69 6/6/6
f 73/73/71 72/72/70 6/6/6
f 73/73/71 6/6/6 5/5/5
f 74/74/72 73/73/71 5/5/5
f 75/75/73 74/74/72 5/5/5
f 75/75/73 5/5/5 76/76/74
f 75/75/73 76/76/74 77/77/75
f 78/78/76 77/77/75 76/76/74
f 79/79/76 78/78/76 76/76/74
f 80/80/76 79/79/76 76/76/74
f 80/80/76 76/76/74 81/81/77
f 76/76/74 82/82/78 81/81/77
f 7/7/7 82/82/78 76/76/74
f 5/5/5 7/7/7 76/76/74
f 7/7/7 83/83/79 82/82/78
f 7/7/7 19/19/19 83/83/79
f 86/84/80 85/85/81 84/86/82
f 86/84/80 49/49/49 85/85/81
f 49/49/49 86/84/80 87/87/83
f 86/84/80 35/35/35 87/87/83
f 87/87/83 35/35/35 36/36/36
f 87/87/83 36/36/36 39/39/39
f 45/45/45 87/87/83 39/39/39
f 49/49/49 87/87/83 45/45/45
f 86/84/80 34/34/34 35/35/35
f 34/34/34 86/84/80 88/88/84
f 84/86/82 88/88/84 86/84/80
f 34/34/34 88/88/84 89/89/85
f 85/85/81 49/49/49 57/57/57
f 33/33/33 34/34/34 89/89/85
